<?xml version="1.0" encoding="utf-8"?>
<!-- Generator: Adobe Illustrator 23.1.1, SVG Export Plug-In . SVG Version: 6.00 Build 0)  -->
<svg version="1.1" id="Layer_1" xmlns="http://www.w3.org/2000/svg" xmlns:xlink="http://www.w3.org/1999/xlink" x="0px" y="0px"
	 viewBox="0 0 24 24" style="enable-background:new 0 0 24 24;" xml:space="preserve">
<style type="text/css">
	.st0{fill:#323232;}
</style>
<g>
	<path class="st0" d="M12,2.3c3.2,0,3.6,0,4.8,0.1c1.2,0.1,1.8,0.2,2.2,0.4c0.6,0.2,1,0.5,1.4,0.9c0.4,0.4,0.7,0.8,0.9,1.4
		c0.2,0.4,0.4,1.1,0.4,2.2c0.1,1.3,0.1,1.6,0.1,4.8s0,3.6-0.1,4.8c-0.1,1.2-0.2,1.8-0.4,2.2c-0.2,0.6-0.5,1-0.9,1.4
		c-0.4,0.4-0.8,0.7-1.4,0.9c-0.4,0.2-1.1,0.4-2.2,0.4c-1.3,0.1-1.6,0.1-4.8,0.1s-3.6,0-4.8-0.1c-1.2-0.1-1.8-0.2-2.2-0.4
		c-0.6-0.2-1-0.5-1.4-0.9c-0.4-0.4-0.7-0.8-0.9-1.4c-0.2-0.4-0.4-1.1-0.4-2.2c-0.1-1.3-0.1-1.6-0.1-4.8s0-3.6,0.1-4.8
		C2.3,6.1,2.5,5.4,2.6,5c0.2-0.6,0.5-1,0.9-1.4C4,3.2,4.4,3,4.9,2.7C5.3,2.6,6,2.4,7.2,2.3C8.4,2.3,8.8,2.3,12,2.3 M12,0.1
		c-3.3,0-3.7,0-4.9,0.1C5.8,0.2,4.9,0.4,4.1,0.7C3.4,1,2.7,1.4,2,2.1C1.3,2.8,0.9,3.4,0.6,4.2C0.3,5,0.1,5.9,0.1,7.1
		C0,8.4,0,8.8,0,12.1c0,3.3,0,3.7,0.1,4.9c0.1,1.3,0.3,2.1,0.6,2.9c0.3,0.8,0.7,1.5,1.4,2.1c0.7,0.7,1.3,1.1,2.1,1.4
		C4.9,23.8,5.8,24,7.1,24c1.3,0.1,1.7,0.1,4.9,0.1s3.7,0,4.9-0.1c1.3-0.1,2.1-0.3,2.9-0.6c0.8-0.3,1.5-0.7,2.1-1.4
		c0.7-0.7,1.1-1.3,1.4-2.1c0.3-0.8,0.5-1.6,0.6-2.9c0.1-1.3,0.1-1.7,0.1-4.9s0-3.7-0.1-4.9c-0.1-1.3-0.3-2.1-0.6-2.9
		c-0.3-0.8-0.7-1.5-1.4-2.1c-0.7-0.7-1.3-1.1-2.1-1.4c-0.8-0.3-1.6-0.5-2.9-0.6C15.7,0.1,15.3,0.1,12,0.1L12,0.1z"/>
	<path class="st0" d="M12,5.9c-3.4,0-6.2,2.8-6.2,6.2s2.8,6.2,6.2,6.2s6.2-2.8,6.2-6.2S15.4,5.9,12,5.9z M12,16.1c-2.2,0-4-1.8-4-4
		s1.8-4,4-4s4,1.8,4,4S14.2,16.1,12,16.1z"/>
	<circle class="st0" cx="18.4" cy="5.7" r="1.4"/>
</g>
</svg>
