<?xml version="1.0" encoding="utf-8"?>
<!-- Generator: Adobe Illustrator 23.1.1, SVG Export Plug-In . SVG Version: 6.00 Build 0)  -->
<svg version="1.1" id="Layer_1" xmlns="http://www.w3.org/2000/svg" xmlns:xlink="http://www.w3.org/1999/xlink" x="0px" y="0px"
	 viewBox="0 0 24 24" style="enable-background:new 0 0 24 24;" xml:space="preserve">
<style type="text/css">
	.st0{fill:#FFFFFF;}
</style>
<path class="st0" d="M7.6,21.5c9,0,14-7.5,14-14c0-0.2,0-0.4,0-0.6c1-0.7,1.8-1.6,2.5-2.5c-0.9,0.4-1.8,0.7-2.8,0.8
	c1-0.6,1.8-1.6,2.2-2.7c-0.9,0.6-2,1-3.1,1.2C19.3,2.6,18,2,16.6,2c-2.7,0-4.9,2.2-4.9,4.9c0,0.4,0,0.8,0.1,1.1
	C7.8,7.8,4.1,5.9,1.7,2.9C1.3,3.6,1.1,4.5,1.1,5.4c0,1.7,0.9,3.2,2.2,4.1C2.4,9.4,1.7,9.2,1,8.8c0,0,0,0,0,0.1
	c0,2.4,1.7,4.4,3.9,4.8c-0.4,0.1-0.8,0.2-1.3,0.2c-0.3,0-0.6,0-0.9-0.1c0.6,2,2.4,3.4,4.6,3.4c-1.7,1.3-3.8,2.1-6.1,2.1
	c-0.4,0-0.8,0-1.2-0.1C2.2,20.6,4.8,21.5,7.6,21.5"/>
<g>
	<path class="st0" d="M524,14.9c0-282.8-229.2-512-512-512s-512,229.2-512,512c0,255.6,187.2,467.4,432,505.8V162.9h-130v-148h130
		V-97.9c0-128.3,76.4-199.2,193.4-199.2c56,0,114.6,10,114.6,10v126h-64.6c-63.6,0-83.4,39.5-83.4,80v96h142l-22.7,148H92v357.8
		C336.7,482.3,524,270.5,524,14.9z"/>
</g>
</svg>
